<svg width="61" height="61" viewBox="0 0 61 61" fill="none" xmlns="http://www.w3.org/2000/svg">
<g clip-path="url(#clip0_0_8007)">
<path d="M36.7428 23.8217C36.5002 23.6246 36.1434 23.661 35.9463 23.9036C34.5847 25.5785 33.1949 27.2321 31.8051 28.8858C30.6356 30.2827 29.4631 31.6765 28.2684 33.0532C27.8408 32.5872 27.4112 32.1233 26.9938 31.6452C26.0295 30.599 24.5194 32.1112 25.5645 33.0744C26.2963 33.7133 27.015 34.3662 27.7225 35.0303C28.0844 35.3679 28.6737 35.3123 28.9628 34.909C31.5291 31.4329 34.1693 28.0155 36.8277 24.6112C37.0187 24.3686 36.9813 24.0168 36.7407 23.8207L36.7428 23.8217Z" fill="white"/>
<path d="M20.5603 37.9376C22.1553 38.8827 24.0909 37.1138 23.2591 35.4197C22.6354 34.0097 20.9585 30.3719 20.2944 28.9234C19.4434 27.101 18.5417 25.2583 17.6614 23.446C17.4188 22.8719 17.066 22.2927 16.4626 22.0471C15.9228 21.7732 15.2992 21.9036 14.7533 21.9824L13.5495 22.1542L3.92382 23.5562C3.38103 23.635 2.34902 23.7927 1.81937 23.8685C0.177858 24.0434 -0.195121 26.3197 1.24423 27.0474L1.37867 27.1182L5.18729 29.1266C4.73952 29.9767 2.43392 34.3463 2.43392 34.3463C1.64956 35.9544 1.84059 37.9669 2.90798 39.3972C5.77051 43.2947 8.56533 47.26 11.3521 51.2102H11.3531V51.2122C11.3611 51.2233 11.3713 51.2273 11.3793 51.2375C12.3355 53.5532 15.187 54.8368 17.6795 54.5751L19.0421 54.5609C21.289 54.5286 24.3022 54.4255 26.536 54.3224C27.849 54.3941 29.0579 53.2226 28.9477 51.9157L28.9194 51.2344L28.8072 48.5094C28.7476 46.693 28.7102 44.8756 28.7001 43.0582C28.7183 42.5275 28.4858 41.9191 28.0583 41.5471C27.6843 41.164 27.0081 41.0063 26.5289 41.0427C22.4151 41.0205 18.2375 40.9103 14.1196 40.6202C15.2648 38.6411 16.4252 36.6357 16.8871 35.8372L20.5583 37.9396L20.5603 37.9376ZM23.8039 41.8695L26.531 41.8432C27.3325 41.7462 27.9461 42.3133 27.9026 43.0572C27.8945 45.6862 27.8005 48.5973 27.6822 51.2405C27.6529 51.4962 27.7014 52.1128 27.5579 52.3251C27.3679 52.7162 26.9383 52.8587 26.537 52.8021C23.3541 52.6596 19.5808 52.5626 16.3878 52.5575C14.8716 52.4747 13.414 51.8267 12.0869 50.7159L12.0828 50.7068C10.2746 48.1849 11.158 45.2263 12.8066 42.8914C12.8066 42.8914 13.0866 42.4083 13.129 42.3345C16.687 42.0596 20.2449 41.9201 23.8039 41.8695ZM15.8793 34.3392L11.723 42.2961C11.0256 43.6556 10.1361 45.0697 10.0603 46.6586C10.0239 47.0862 10.033 47.5147 10.0795 47.9383C7.90427 44.9362 5.73312 41.9261 3.61452 38.8877C3.33251 38.4875 3.12429 38.0457 2.99693 37.5777C2.74929 36.6407 2.84935 35.6189 3.28096 34.7546C4.29275 32.912 5.40158 31.0248 6.45683 29.162C6.61452 28.887 6.51142 28.5373 6.23143 28.3887L2.00939 25.973C1.69302 25.8557 1.54443 25.4484 1.88204 25.2947C1.91539 25.2634 2.2631 25.2583 2.29747 25.2381C4.44942 25.0056 12.8076 24.0747 14.9939 23.824L15.5983 23.7543C15.6833 23.7462 15.6721 23.7654 15.7146 23.8099C17.1499 27.0201 18.9865 30.9814 20.5471 34.1734L21.565 36.2627C21.6024 36.2809 21.5559 36.4073 21.4356 36.3537L16.9811 34.0178C16.5909 33.7934 16.0876 33.9389 15.8793 34.3392Z" fill="white"/>
<path d="M45.9875 21.3132C46.4242 21.1808 48.4518 17.1791 48.7783 16.7252L53.2287 8.80981C54.0839 7.38865 52.6111 5.54499 51.0182 6.02814C50.2358 6.31925 48.3345 7.23097 47.0468 7.8334C46.2766 6.2212 45.4033 4.3462 44.631 2.88259C43.6839 1.16022 41.7584 0.0443123 39.7985 0.0928298L38.1863 0.115067L25.2887 0.347547C25.2412 0.347547 25.2058 0.363719 25.1634 0.370795C22.696 0.0160104 20.1064 1.58373 18.8824 3.75691L18.1081 4.87787C16.8386 6.72962 15.1718 9.24041 13.9538 11.1154C13.1401 12.1302 13.3837 13.7788 14.4976 14.4469L15.0667 14.8219L17.3419 16.323C18.85 17.3358 20.346 18.3668 21.8288 19.4159C22.2493 19.7404 22.88 19.9052 23.4309 19.7728C23.9605 19.6909 24.4801 19.232 24.7297 18.8226C27.1819 15.4335 29.7462 12.0433 32.4248 8.81588C33.3062 10.6151 34.1816 12.4173 35.0609 14.2175C34.0471 14.7158 31.3706 16.0308 31.3706 16.0308C29.9595 16.4655 29.5865 18.1525 31.0037 18.8287C35.2762 19.701 39.6054 20.4924 43.876 21.4011C44.5633 21.5548 45.3719 21.7933 45.9895 21.3112L45.9875 21.3132ZM25.6394 16.1248L24.0758 18.3566C23.6886 19.0652 22.8719 19.234 22.2917 18.767C20.16 17.2306 17.8453 15.4658 15.7621 13.8385L15.2233 13.42C14.719 13.0632 14.7442 12.3728 15.1506 11.9705C17.1135 9.46278 19.3928 6.45671 21.2769 3.88124C22.226 2.72996 23.6108 1.97491 25.2078 1.6646C25.2361 1.66763 25.2574 1.67976 25.2887 1.67976C26.6239 1.65348 27.9764 2.12349 29.0094 3.00186C30.1465 3.90752 30.6469 5.26601 31.3039 6.54162C31.3878 6.70941 31.4686 6.87922 31.5525 7.04701C29.6836 10.1461 27.6974 13.1602 25.6394 16.1248ZM31.7779 18.1686C31.0926 18.1201 30.7752 17.7825 30.9855 17.2246C31.127 16.9618 31.4343 16.891 31.7092 16.7434L35.814 14.7987C36.0242 14.6986 36.1152 14.448 36.0171 14.2367C34.7547 11.5238 33.4589 8.82598 32.2237 6.09991C31.6374 4.4028 30.6479 2.82497 29.2934 1.75152C33.0818 1.81925 38.1913 1.91224 38.1913 1.91123C38.9808 1.95368 40.3261 1.82531 41.0539 2.17403C41.8433 2.48434 42.5134 3.08373 42.9026 3.83272C43.7708 5.68346 44.7139 7.69997 45.6529 9.60732C45.8894 10.1157 46.5 10.3321 47.0023 10.0824L50.3975 8.40247L51.2456 7.97996C51.2618 7.97187 51.5579 7.82329 51.564 7.83239C51.5842 7.83239 51.6226 7.85159 51.6357 7.87181C51.6448 7.89101 51.657 7.87787 51.6357 7.95166C50.2722 10.6019 46.7233 17.5106 45.4275 20.0851C45.2749 20.4934 44.9615 20.4176 44.6512 20.3661L44.0903 20.2761L41.8494 19.9052C38.4885 19.3634 35.1266 18.7792 31.7779 18.1686Z" fill="white"/>
<path d="M58.685 29.8061C57.5691 27.8573 56.0317 25.2646 54.8724 23.3542C54.3114 22.1797 52.7214 21.6824 51.6348 22.396L51.0496 22.7447C48.7915 24.1083 46.2696 25.5709 43.9731 26.8374C43.498 27.0759 43.0765 27.5712 42.9552 28.1251C42.7986 28.6376 42.9866 29.3047 43.2474 29.708C45.2346 33.3893 47.1732 37.1716 48.9158 40.9873C46.9125 40.9995 44.9081 41.0045 42.9047 41.0136C42.8996 40.3111 42.8754 36.9018 42.8754 36.9018C42.8754 36.4762 42.9138 35.9496 42.6136 35.5716C41.9293 34.6255 40.6042 34.9146 40.1099 35.8556C37.6628 39.1922 35.1187 42.5409 32.6028 45.832C32.1662 46.3849 31.6001 47.0096 31.7659 47.7747C31.684 48.2063 34.4151 51.7885 34.685 52.2818L39.8794 59.7293C40.7871 61.1171 43.0887 60.5914 43.3454 58.9469C43.4232 58.1181 43.4283 56.0086 43.4445 54.5874C44.3926 54.5904 45.6753 54.5955 45.6753 54.5955C47.9566 54.5914 50.714 54.8724 52.4536 53.0055C53.2844 52.2666 53.7696 50.9334 54.2477 49.96C54.2477 49.96 59.6392 38.2522 59.6433 38.2431C59.6645 38.1996 59.6645 38.1612 59.6766 38.1197C61.0685 36.0517 60.7814 33.0375 59.3562 30.9907L58.685 29.8061ZM45.2821 31.7023L43.9519 29.3239C43.4819 28.6669 43.684 27.8583 44.3572 27.5389C46.6678 26.2865 49.2625 24.9685 51.6338 23.8C51.8764 23.6999 52.3909 23.3623 52.6507 23.3846C53.0934 23.3603 53.435 23.6747 53.5816 24.0608C54.9118 26.7666 56.5179 29.9082 57.9593 32.6261C57.5732 32.2511 57.184 31.8863 56.8393 31.5871C56.334 31.1474 55.9337 30.8361 55.8114 30.7966C54.928 30.6753 55.7255 31.7387 56.804 32.8516C57.3437 33.4085 57.9532 33.9776 58.4586 34.4173C58.5213 34.4718 58.5769 34.5173 58.6355 34.5679C58.7457 35.2026 58.78 35.8566 58.7012 36.5268C58.6951 36.5187 58.6931 36.5126 58.6871 36.5035C58.398 36.1154 57.8299 35.5665 57.1759 35.0217C57.1466 34.9964 57.1153 34.9722 57.086 34.9479C56.4623 34.4354 55.7831 33.922 55.2241 33.5298C55.1776 33.4974 55.1331 33.4651 55.0877 33.4338C54.5449 33.0638 54.1335 32.8445 54.0425 32.8657C53.9081 32.897 53.8353 32.9557 53.8404 33.0183C53.8727 33.363 54.6267 34.1322 55.496 34.8933C55.6456 35.0237 55.8013 35.1511 55.9579 35.2774C56.3744 35.616 56.8019 35.9435 57.2073 36.2306C57.2659 36.272 57.3235 36.3115 57.3801 36.3519C57.8744 36.7067 58.2888 36.9877 58.5253 37.0756C58.5567 37.0786 58.5688 37.0706 58.5961 37.0706C58.5627 37.2464 58.5405 37.4213 58.494 37.5972C58.4788 37.6214 58.4586 37.6356 58.4455 37.6639C58.2837 38.0348 58.0877 38.3633 57.8703 38.6635C57.8259 38.5665 57.7531 38.4563 57.6257 38.3209C57.2629 37.9358 56.6028 37.4071 55.8599 36.8906C55.8235 36.8654 55.7871 36.8411 55.7507 36.8158C55.029 36.3216 54.2477 35.8334 53.6099 35.4715C53.5594 35.4432 53.5098 35.4149 53.4613 35.3876C52.8185 35.0359 52.3434 34.8448 52.2736 34.9358C52.1594 35.0035 52.1311 35.1238 52.1908 35.1976C52.5769 35.6787 53.3471 36.3165 54.1891 36.9351C54.3569 37.0584 54.5307 37.1757 54.7046 37.2939C55.1655 37.6063 55.6375 37.9045 56.1025 38.1723C56.1692 38.2107 56.2369 38.2471 56.3026 38.2855C56.7777 38.5635 57.2133 38.8071 57.5661 38.9425C57.5964 38.9435 57.6065 38.9354 57.6338 38.9344C57.273 39.362 56.8676 39.7299 56.4067 40.0109C55.9337 39.6248 55.21 39.1487 54.4145 38.6838C53.5331 38.1683 52.5789 37.671 51.8339 37.3425C51.089 37.0129 50.5523 36.8512 50.5048 37.0069C50.4118 37.1201 50.428 37.2859 50.5412 37.3788C51.4691 38.0945 52.4404 38.7383 53.4512 39.3104C53.9566 39.5965 54.4731 39.8654 54.9987 40.115C55.21 40.2151 55.4303 40.3 55.6446 40.395C54.3801 40.9297 52.9044 41.0702 51.4549 40.9681C51.2669 40.9712 51.0789 40.9702 50.8909 40.9722C48.9118 37.9429 47.06 34.8428 45.2841 31.7023H45.2821ZM52.6284 49.1828C52.2453 49.8772 51.7804 51.1417 51.1476 51.647C50.525 52.2232 49.6941 52.5658 48.8501 52.5921C46.8063 52.5699 44.5806 52.5426 42.4539 52.5598C41.8929 52.5517 41.433 53.0086 41.4391 53.5695L41.4765 57.3569L41.4886 58.3041L41.4906 58.6113L41.4825 58.6548C41.4734 58.673 41.4401 58.6993 41.4158 58.7023C41.3946 58.7023 41.4007 58.7195 41.343 58.6679L35.8666 51.4166L33.1122 47.804C32.812 47.4887 33.0142 47.241 33.1961 46.9833C35.4684 43.7488 37.773 40.4476 40.1038 37.2626C40.3585 36.9745 41.0428 35.7636 41.3592 35.802C42.0395 35.7121 42.1325 36.3559 42.0829 36.8997L42.0506 41.4422C42.0486 41.6747 42.2356 41.8657 42.468 41.8687C45.461 41.9112 48.4529 41.9162 51.4458 41.988C53.2389 42.1983 55.0907 41.9718 56.6503 41.2087C54.9411 44.5938 52.6244 49.1828 52.6244 49.1828H52.6284Z" fill="white"/>
</g>
<defs>
<clipPath id="clip0_0_8007">
<rect width="60.6469" height="60.6469" fill="white"/>
</clipPath>
</defs>
</svg>
