<svg width="61" height="61" viewBox="0 0 61 61" fill="none" xmlns="http://www.w3.org/2000/svg">
<path fill-rule="evenodd" clip-rule="evenodd" d="M29.5967 31.1329C33.7019 30.7241 36.5625 27.7384 37.0003 23.8895C37.6009 23.9142 38.6106 24.0489 38.6957 23.2032C38.6385 22.5232 39.6178 22.3404 39.6288 23.0716C39.5901 23.9386 40.534 24.0805 41.2508 24.0073C40.7943 30.4966 35.5775 35.1577 29.4055 36.2414L29.4034 35.6314C31.1478 34.9763 31.0831 32.2398 29.3383 31.7082L29.3299 31.1536C29.4186 31.1467 29.5073 31.1467 29.5967 31.1329ZM14.6884 25.8025C15.1582 32.3497 21.5813 37.3794 27.9484 37.4682C28.4568 37.4937 29.2893 37.5412 29.4005 36.8722C36.9713 37.9445 43.3458 30.1955 43.0292 22.9953C43.0105 22.047 41.8139 22.2514 41.1869 22.2536C40.4978 20.5482 37.9114 20.5082 37.2595 22.323C34.5389 22.1529 36.0161 23.3974 35.1245 25.4976C34.2071 27.9821 31.8786 29.9772 29.3139 30.5992C29.2737 30.2388 28.9735 29.9616 28.6061 29.9616C25.0481 30.0565 22.0133 27.2466 21.1006 23.9242C22.6553 23.8182 20.8453 20.3132 24.8812 17.5195C26.9675 15.8518 29.5228 16.9558 29.5072 15.4331C29.4079 14.7138 29.8009 12.9289 28.6061 12.9447C27.8112 12.8867 27.985 11.8141 28.7496 11.8702C29.8336 11.6753 29.2947 10.1389 29.379 9.36794C29.2284 8.30613 28.0124 8.74497 27.2385 8.76486C20.2583 9.24301 13.8003 16.2683 15.1423 22.5309C15.2554 22.6252 15.2078 22.6121 15.2608 22.524L15.2365 22.8151C16.3148 16.5463 20.5966 10.8083 27.4873 10.4284C25.8865 11.3117 25.9687 13.7778 27.6814 14.525V14.5597C23.7919 14.9857 20.3595 18.3199 20.1766 22.2883C19.5957 22.3128 18.6069 22.2547 18.6358 23.0923C18.649 24.036 17.3177 24.035 17.1525 23.12C17.0111 22.8645 16.9441 22.4644 16.6318 22.5654C15.9851 22.6966 15.6632 22.8039 15.12 22.9328C15.3226 22.9675 15.2709 23.0088 15.3487 23.0437C15.6663 23.1866 15.4813 23.1612 15.6031 23.2031C15.7958 23.2693 16.0309 23.3424 16.2511 23.3625C16.3418 25.3358 19.2744 25.6539 19.9796 23.8961L20.514 23.91C20.783 27.8097 23.7993 31.0592 27.772 31.4445C27.7488 32.045 27.6104 33.0538 28.4534 33.1427C29.1129 33.0712 29.3339 34.0568 28.5843 34.0785C27.7075 34.035 27.585 35.0079 27.6528 35.6935C20.5963 35.1619 16.4068 29.5768 15.1705 23.0505C15.1016 23.2802 15.0549 23.2568 15.0187 23.3416C14.8904 23.6417 14.8802 23.5391 14.8461 23.6327C14.657 24.1537 14.6461 25.2162 14.6884 25.8025ZM31.8481 7.61415C31.7564 6.49303 32.3789 5.5091 33.5352 5.42383C33.5577 5.28579 33.6796 4.75392 33.7216 4.73063C33.8386 4.66586 33.8144 4.56482 33.8804 4.49496C33.9476 4.41175 33.9469 4.41866 33.969 4.29397C34.0952 4.83458 34.2055 5.1645 34.3357 5.80505C34.4679 6.20981 33.6954 6.25675 33.3196 6.56059C32.8555 6.91877 33.1696 7.97088 33.9324 7.82205C34.701 7.91023 34.5568 8.79761 34.6109 9.35399C38.5684 9.52356 41.929 12.9821 42.3382 16.8539H42.3749C43.0925 15.1893 45.5065 15.0028 46.4694 16.6599C46.1519 9.83395 40.2894 5.4379 34.0856 4.41187C34.1313 4.40011 34.2707 4.44656 34.3767 4.43261L34.3067 4.3841C34.3276 4.36736 34.3526 4.34941 34.3663 4.31472C44.2663 1.86967 51.8773 19.1956 46.6122 18.5871C46.0414 18.5979 45.1079 18.7112 45.0291 17.9213C45.1021 17.2058 44.0259 16.9458 43.9595 17.7828C43.9668 18.9664 42.1867 18.5882 41.4676 18.6839C41.0004 18.7056 40.5851 18.3345 40.568 17.7828C40.5348 14.1468 37.4254 11.0166 33.7765 11.0315C32.8082 11.0038 32.9709 9.80884 33.0051 9.153C32.4208 8.90678 31.9054 8.25446 31.8481 7.61415ZM50.5993 42.6461C50.3766 43.9919 45.2644 46.0841 44.1273 46.9924C32.6345 55.3292 27.4293 50.2943 15.518 52.4265C15.5185 49.0384 15.4567 45.6758 15.3926 42.2787C16.7335 42.6276 16.964 41.5839 18.0981 41.0657C21.559 39.0033 24.9256 40.1299 28.2999 41.5997C28.3819 41.5993 36.0641 41.6488 36.1489 41.6479C37.1914 41.7039 38.0673 42.7418 37.8231 43.8382C37.6164 44.7661 37.1154 44.8041 36.895 45.1899C34.0485 45.1729 31.0198 44.4848 28.225 45.0998C28.0875 45.2793 28.0401 45.1713 28.0019 45.2731C27.976 45.342 27.936 45.3098 27.9256 45.3425C27.9095 45.3979 27.886 45.4117 27.8611 45.4395C28.5153 47.153 31.5496 46.5953 32.9738 46.7081C34.0997 46.6157 35.4482 46.7429 36.6324 46.3338L36.9595 46.1258C37.2154 46.4642 37.6698 46.568 38.0679 46.3545C39.2079 45.7432 40.4481 45.0184 41.5933 44.379C44.001 43.1532 46.2208 41.5771 48.7002 40.5318C50.0155 40.3695 50.9141 41.6158 50.5993 42.6461ZM15.6533 41.9738C15.5923 41.9392 15.482 41.9392 15.385 41.9322L15.3898 42.1124C15.4654 42.1055 15.5416 42.0986 15.6199 42.0916C15.3009 42.0686 15.5724 42.0428 15.6533 41.9738ZM13.8205 54.7139C13.8192 54.7139 13.8192 54.7139 13.8205 54.7139V54.7139ZM10.106 54.7139H10.104V54.6931L10.106 54.7139ZM10.088 54.6862L10.0921 54.6931C10.0817 54.6862 10.0915 54.6862 10.088 54.6862ZM52.407 42.0292C52.2267 39.6003 49.7772 38.1647 47.7226 38.9793C46.8229 39.3708 45.8379 40.0322 44.9778 40.532L39.4069 43.7482C39.5026 38.8484 33.5177 40.3812 30.3647 40.2062L28.4294 40.22C24.389 38.0924 19.3557 38.3222 16.1558 41.8003L15.3844 41.8766C15.4191 40.1552 15.4314 38.4356 13.135 38.9516C13.0366 39.0153 9.63239 39.2711 10.5184 39.4159C10.4824 39.4629 10.3477 39.5407 10.5018 39.5407C10.3789 39.565 10.1692 39.5694 10.0866 39.624C10.6963 39.9259 11.4672 39.7109 12.0995 39.8874C12.5695 39.9011 13.8638 39.6979 14.0972 40.116C13.9156 44.4393 13.915 50.3968 13.8205 54.6931C12.6559 54.7001 11.2794 54.6901 10.1025 54.6931C10.0586 49.9122 10.1565 44.7725 9.63469 40.0676C9.62487 39.9179 9.731 39.8533 9.74616 39.7419C9.76302 39.6192 9.88468 39.6267 9.89935 39.5825C9.92701 39.5131 10.0033 39.4854 10.0865 39.4577C7.22846 38.3424 8.56379 52.553 8.26456 54.5613C8.17528 55.5789 9.09275 56.589 10.149 56.5022C13.6866 56.2388 16.0878 57.5759 15.532 52.7314C32.9178 54.0739 34.3752 55.879 49.7673 45.8127C51.2424 45.1311 52.568 43.7715 52.407 42.0292Z" fill="white"/>
</svg>
