<svg width="61" height="61" viewBox="0 0 61 61" fill="none" xmlns="http://www.w3.org/2000/svg">
<path d="M9.49667 22.4528C9.48775 22.4577 9.47963 22.4617 9.47152 22.4666C9.46665 22.469 9.46178 22.4714 9.45692 22.4739C8.68861 22.8885 8.37463 23.9277 8.78515 24.6977C9.19297 25.4674 10.2285 25.7894 11.0041 25.3865C11.7773 24.9816 12.105 23.9464 11.7067 23.1708C11.3075 22.3952 10.2747 22.0609 9.49667 22.4528Z" fill="white"/>
<path d="M15.3131 22.4528C15.3042 22.4577 15.2961 22.4617 15.2879 22.4666C15.2831 22.469 15.2782 22.4714 15.2733 22.4739C14.5058 22.8885 14.1919 23.9277 14.6008 24.6985C15.0101 25.4677 16.048 25.7898 16.8205 25.3857C17.5929 24.9808 17.9214 23.9464 17.5231 23.1708C17.1247 22.3952 16.0903 22.0609 15.3131 22.4528Z" fill="white"/>
<path d="M9.85945 34.2319C9.85377 34.2343 9.84809 34.2376 9.84322 34.24C8.99627 34.7105 8.76182 35.7503 9.14874 36.476C9.55604 37.2435 10.592 37.5693 11.3669 37.1639C12.14 36.7607 12.4686 35.7255 12.0703 34.9483C11.6727 34.1718 10.6383 33.836 9.85945 34.2319Z" fill="white"/>
<path d="M15.6757 34.2319C15.6725 34.2335 15.67 34.2351 15.6668 34.2367C14.9733 34.5257 14.5118 35.6268 14.965 36.476C15.253 37.0187 15.8534 37.3392 16.4538 37.3392C17.7085 37.3392 18.4017 35.9535 17.8865 34.9483C17.4874 34.1718 16.4546 33.836 15.6757 34.2319Z" fill="white"/>
<path d="M9.82781 46.6004C9.82619 46.6012 9.82376 46.6028 9.82132 46.6036C9.05301 47.0182 8.73823 48.0583 9.14875 48.8274C9.43676 49.371 10.0371 49.6907 10.6367 49.6907C11.893 49.6907 12.5868 48.3052 12.0703 47.3006C11.636 46.4568 10.487 46.1948 9.82781 46.6004Z" fill="white"/>
<path d="M15.6513 46.5963C15.6465 46.5987 15.6416 46.6011 15.6367 46.6036C14.8684 47.019 14.5553 48.0582 14.965 48.8274C15.253 49.3709 15.8534 49.6906 16.4529 49.6906C17.7092 49.6906 18.403 48.3051 17.8865 47.3005C17.4583 46.4667 16.3227 46.1935 15.6513 46.5963Z" fill="white"/>
<path d="M57.0677 14.2802C57.0677 8.74914 52.5494 3.99609 46.7925 3.99609C39.6835 3.99609 35.0561 10.1388 35.9168 16.7604H8.56203C7.85305 16.7604 7.19407 16.9427 6.62356 17.247C6.62402 17.246 6.62443 17.245 6.62488 17.2439C5.20778 17.8137 4.31032 19.4355 3.93996 20.8009C3.52036 22.3479 3.58385 23.9741 3.65027 25.5724C3.71061 27.0248 3.77283 28.4898 4.14416 29.898C3.36195 34.4094 3.32068 38.0111 4.47055 42.3049C3.89529 45.7361 2.81295 51.0831 4.47055 54.3901C5.41289 56.2699 8.88651 56.1122 11.3483 56.337C14.5267 56.6272 18.1847 56.6224 21.3766 56.6459C27.7051 56.6925 33.5624 56.4229 39.8539 55.7865C40.5608 55.715 41.322 55.6172 41.8376 55.1432C42.3532 54.6692 42.3967 53.6819 41.7517 53.3928C41.3731 53.2229 40.914 53.351 40.4827 53.4633C40.8452 53.0113 41.0655 52.4725 41.0793 51.8844C41.1394 49.3709 41.0189 46.8278 41.0728 44.3579C41.093 43.4317 40.617 42.5078 39.566 41.886C40.4639 41.3651 41.0562 40.5163 41.0793 39.5322C41.1394 37.0187 41.0189 34.4764 41.0728 32.0065C41.0921 31.1214 40.64 30.2081 39.6838 29.5944C40.5131 29.0686 41.0575 28.2583 41.0776 27.3212C41.1019 26.228 41.095 25.1402 41.0826 24.1577C44.1353 25.7913 48.7091 25.916 52.0659 23.788C54.2484 22.4046 56.0653 19.9476 56.5913 17.372C56.8761 16.4707 57.0677 15.527 57.0677 14.2802ZM55.8215 14.2802C55.8215 14.2819 55.8213 14.2835 55.8213 14.2851H54.8561C54.5121 14.2851 54.233 14.5642 54.233 14.9082C54.233 15.2522 54.5121 15.5313 54.8561 15.5313H55.7234C55.128 19.8522 51.6018 22.9258 47.5868 23.2828V22.5158C47.5868 22.1718 47.3077 21.8927 46.9637 21.8927C46.6197 21.8927 46.3406 22.1718 46.3406 22.5158V23.2975C42.6194 23.1072 39.0323 20.5529 37.9888 16.3621H40.1828C40.5268 16.3621 40.8059 16.083 40.8059 15.739C40.8059 15.395 40.5268 15.1159 40.1828 15.1159C39.142 15.1199 37.9904 15.1069 37.7704 15.1269C37.1593 9.96727 40.5062 5.84598 45.6477 5.30331V5.82316C45.6477 6.16715 45.9268 6.44624 46.2708 6.44624C46.6148 6.44624 46.8939 6.16715 46.8939 5.82316V5.24754C51.98 5.3073 55.8215 9.51874 55.8215 14.2802ZM39.8331 51.8552C39.8112 52.7817 38.7614 53.5346 37.4908 53.5346C37.3538 53.5346 8.66494 53.4934 8.55392 53.4932C7.26637 53.4916 6.21897 52.7208 6.21897 51.7748V44.2905C6.21897 43.3437 7.26881 42.573 8.55879 42.573H37.4908C38.6386 42.573 39.8502 43.2746 39.8266 44.3303C39.7731 46.8272 39.8921 49.3652 39.8331 51.8552ZM39.8331 39.503C39.8112 40.4295 38.7614 41.1824 37.4908 41.1824C37.4892 41.1824 37.4876 41.1824 37.486 41.1824L8.55392 41.141C7.26637 41.1394 6.21897 40.3687 6.21897 39.4235V31.9384C6.21897 30.9916 7.26881 30.2208 8.55879 30.2208H37.4908C38.6342 30.2208 39.8503 30.9218 39.8266 31.9789C39.7731 34.4742 39.8921 37.0123 39.8331 39.503ZM39.8315 27.2944C39.812 28.2185 38.7581 28.9706 37.4835 28.9706C5.67569 28.782 8.78954 29.2798 7.04326 28.5114C6.52159 28.1788 6.22303 27.7074 6.22303 27.2109V19.7217C6.22303 18.6749 7.43809 18.0066 8.56203 18.0066H36.1559C36.6781 19.7992 37.996 21.8357 39.8255 23.3146C39.8692 26.7971 39.8338 26.7189 39.8315 27.2944Z" fill="white"/>
<path d="M33.8052 22.9746H23.1519C22.8079 22.9746 22.5288 23.2537 22.5288 23.5977C22.5288 23.9417 22.8079 24.2208 23.1519 24.2208H33.8052C34.1492 24.2208 34.4283 23.9417 34.4283 23.5977C34.4283 23.2537 34.1492 22.9746 33.8052 22.9746Z" fill="white"/>
<path d="M31.1554 35.4365H24.1214C23.7774 35.4365 23.4983 35.7156 23.4983 36.0596C23.4983 36.4036 23.7774 36.6827 24.1214 36.6827H31.1554C31.4994 36.6827 31.7785 36.4036 31.7785 36.0596C31.7785 35.7156 31.4994 35.4365 31.1554 35.4365Z" fill="white"/>
<path d="M34.0988 47.3452H24.1214C23.7774 47.3452 23.4983 47.6243 23.4983 47.9683C23.4983 48.3123 23.7774 48.5914 24.1214 48.5914H34.0988C34.4428 48.5914 34.7219 48.3123 34.7219 47.9683C34.7219 47.6243 34.4428 47.3452 34.0988 47.3452Z" fill="white"/>
<path d="M47.0318 8.42557C47.0464 8.08157 46.7786 7.79193 46.4347 7.77814C46.1215 7.74082 45.801 8.03127 45.7872 8.37526L45.5106 15.1602C45.4957 15.5103 45.7761 15.8085 46.1328 15.8085H46.1507L50.9966 15.6697C51.3406 15.66 51.6116 15.3728 51.6019 15.0288C51.5921 14.6856 51.3114 14.4098 50.9609 14.4236L46.7827 14.5436L47.0318 8.42557Z" fill="white"/>
</svg>
