<svg xmlns="http://www.w3.org/2000/svg" width="24" height="24" fill="none" viewBox="0 0 24 24"><g clip-path="url(#clip0_1985_224)"><path fill="#fff" fill-rule="evenodd" d="M8.62496 9C8.62496 9.41422 8.28918 9.75 7.87496 9.75C7.46073 9.75 7.12496 9.41422 7.12496 9V7.5H6.37496C5.61948 7.5 4.98453 8.05065 4.87713 8.78468L3.39167 20.03L3.3905 20.0385C3.2614 20.9368 3.96292 21.75 4.88887 21.75H15.1055C15.5197 21.75 15.8555 22.0858 15.8555 22.5C15.8555 22.9142 15.5197 23.25 15.1055 23.25H4.88887C3.06145 23.25 1.64762 21.6404 1.90511 19.8296L3.39068 8.5836L3.39185 8.57513C3.60469 7.09414 4.87889 6 6.37496 6H7.12496V5.25C7.12496 2.76472 9.13968 0.75 11.625 0.75C14.1102 0.75 16.125 2.76472 16.125 5.25V6H16.875C18.37 6 19.6434 7.09256 19.8576 8.57198L20.6165 13.575C20.6786 13.9846 20.397 14.3669 19.9874 14.429C19.5779 14.4911 19.1956 14.2095 19.1334 13.8L18.3742 8.79428L18.3733 8.7885C18.2676 8.05256 17.6317 7.5 16.875 7.5H16.125V9C16.125 9.41422 15.7892 9.75 15.375 9.75C14.9607 9.75 14.625 9.41422 14.625 9V7.5H8.62496V9ZM8.62496 6H14.625V5.25C14.625 3.59314 13.2818 2.25 11.625 2.25C9.96809 2.25 8.62496 3.59314 8.62496 5.25V6Z" clip-rule="evenodd"/><path fill="#fff" d="M19.125 15.75C19.5392 15.75 19.875 16.0858 19.875 16.5V18.75H22.125C22.5392 18.75 22.875 19.0858 22.875 19.5C22.875 19.9142 22.5392 20.25 22.125 20.25H19.875V22.5C19.875 22.9142 19.5392 23.25 19.125 23.25C18.7108 23.25 18.375 22.9142 18.375 22.5V20.25H16.125C15.7108 20.25 15.375 19.9142 15.375 19.5C15.375 19.0858 15.7108 18.75 16.125 18.75H18.375V16.5C18.375 16.0858 18.7108 15.75 19.125 15.75Z"/></g><defs><clipPath id="clip0_1985_224"><rect width="24" height="24" fill="#fff"/></clipPath></defs></svg>