<svg xmlns="http://www.w3.org/2000/svg" width="27" height="27" fill="none" viewBox="0 0 27 27"><path fill="#FFFDE4" d="M13.5 1.26562C6.75422 1.26562 1.26562 6.75422 1.26562 13.5C1.26562 20.2458 6.75422 25.7344 13.5 25.7344C20.2458 25.7344 25.7344 20.2458 25.7344 13.5C25.7344 6.75422 20.2458 1.26562 13.5 1.26562ZM13.5 2.10938C16.4869 2.10938 19.2122 3.26953 21.2456 5.15953L15.9722 10.433L15.0441 10.6313L14.4661 7.20563C14.4577 7.155 14.4408 7.10437 14.4155 7.05797C14.3522 6.94406 14.2383 6.87234 14.1202 6.85125L8.88047 5.56453C8.76656 5.535 8.64844 5.55609 8.55141 5.61937L3.99516 8.5725C3.85594 8.66531 3.78 8.82984 3.80953 8.99859L4.89797 15.4491C4.9275 15.6136 5.04984 15.7486 5.21016 15.7866L9.53859 16.8708L5.16375 21.2456C3.27375 19.2122 2.11359 16.4911 2.11359 13.5C2.11359 7.21828 7.2225 2.10938 13.5042 2.10938H13.5ZM13.2933 12.2133L13.8206 12.5845L13.0655 13.3397L13.2891 12.2175L13.2933 12.2133ZM12.9178 11.0869C12.7533 11.1206 12.6267 11.2514 12.593 11.4159L11.9939 14.4155L10.8253 15.5841L9.96047 10.4541L13.7405 7.97766L14.2172 10.8127L12.9178 11.0911V11.0869ZM9.42047 9.79594L5.26078 8.75391L8.85094 6.42937L13.0064 7.45031L9.42047 9.79594ZM9.12516 10.5933L10.0617 16.1367L5.67844 15.0398L4.74187 9.49641L9.12516 10.5933ZM12.7659 14.8331L14.5209 13.0781L16.9931 14.8078L15.8878 20.3217L12.1837 17.7314L12.7659 14.8373V14.8331ZM17.82 14.9723L22.237 14.0105L21.1317 19.5244L16.7147 20.4862L17.82 14.9723ZM17.55 14.1666L15.1242 12.4706L16.3856 11.2092L18.2208 10.8169L21.7392 13.2511L17.55 14.1623V14.1666ZM14.4239 11.9812L14.04 11.7113L14.8711 11.5341L14.4239 11.9812ZM13.4958 24.8948C10.5089 24.8948 7.78359 23.7347 5.75016 21.8447L10.4836 17.1113C10.5173 17.1197 10.5469 17.1239 10.5806 17.1239H10.5848C10.6059 17.1239 10.627 17.1239 10.6481 17.1197C10.6523 17.1197 10.6608 17.1155 10.665 17.1113C10.7114 17.1028 10.7536 17.0859 10.7916 17.0606C10.7916 17.0606 10.8 17.0606 10.8042 17.0564L11.5509 16.567L11.2978 17.8327C11.2641 17.9972 11.3316 18.1659 11.4708 18.263L15.93 21.3806C16.0017 21.4312 16.0861 21.4566 16.1705 21.4566C16.2 21.4566 16.2295 21.4566 16.2591 21.4481L21.5747 20.288C21.7392 20.2542 21.8658 20.1234 21.8995 19.9589L23.1862 13.5422C23.22 13.3777 23.1525 13.2089 23.0133 13.1119L18.5498 10.0195C18.4528 9.95203 18.3347 9.93094 18.2208 9.95203L17.4783 10.1081L21.832 5.75437C23.722 7.78781 24.8822 10.5089 24.8822 13.5C24.8822 19.7817 19.7733 24.8906 13.4916 24.8906L13.4958 24.8948Z"/></svg>