<svg width="27" height="27" viewBox="0 0 27 27" fill="none" xmlns="http://www.w3.org/2000/svg">
<g clip-path="url(#clip0_1985_202)">
<path d="M22.1835 11.8084C22.0454 11.6703 21.837 11.6487 21.6633 11.7364C21.4892 11.8251 21.3942 12.0267 21.4253 12.2188C21.4725 12.519 21.2651 14.2056 20.4195 15.196C19.9925 15.6965 19.4831 15.9395 18.8625 15.9395C18.314 15.9395 17.9054 15.7806 17.6133 15.4543C16.8528 14.6052 17.0441 12.8664 17.1071 12.2949L17.1215 12.1576C17.1557 11.7823 17.2133 11.3634 17.2754 10.9138C17.7447 7.488 18.5304 1.7541 10.9007 0.0108C10.8674 0.00405 10.8341 0 10.8003 0H10.7369C10.5852 0 10.4336 0.0063 10.2882 0.0189C10.1087 0.0342 9.95565 0.1557 9.8994 0.32715C9.84315 0.4986 9.89445 0.68715 10.0304 0.8055L10.0911 0.846C12.365 4.10085 11.7714 6.0705 11.2949 7.65315C11.2188 7.9056 11.1468 8.14635 11.0888 8.37855C10.7229 9.84285 8.085 12.7881 6.6333 12.7008C6.0627 12.6621 5.709 12.0645 5.58255 10.9233C5.56095 10.7294 5.41695 10.5718 5.22615 10.5323C5.03265 10.4927 4.84005 10.5808 4.7442 10.7505C4.341 11.4592 3.5373 13.5733 3.3168 14.355C3.07605 15.2239 2.9541 16.1239 2.9541 17.0307C2.9541 21.4821 5.8872 25.2607 9.9219 26.5374C9.93225 26.5419 9.94305 26.5459 9.95385 26.5495C9.95745 26.5509 9.96105 26.5509 9.9651 26.5518C10.8998 26.843 11.8934 27 12.923 27C18.6402 27 24.0461 22.0149 24.0461 16.7423C24.0461 13.671 22.7883 12.4128 22.1835 11.8084ZM7.56615 21.5433C7.56615 21.1455 7.62195 20.7319 7.7295 20.3233C7.77495 20.1645 7.8789 19.8693 7.99635 19.562C8.247 19.8589 8.5512 19.94 8.76675 19.9548C10.0232 20.0408 11.5806 18.1364 11.8259 17.1644C11.8538 17.0505 11.8893 16.933 11.9262 16.8106C12.1458 16.0744 12.4608 15.0201 11.7062 13.5018C14.2478 14.4418 13.9629 16.5299 13.7294 18.2362C13.6956 18.4846 13.6637 18.715 13.6452 18.9207L13.6389 18.9765C13.5966 19.3527 13.4684 20.497 14.075 21.1752C14.3585 21.492 14.7626 21.6598 15.2445 21.6598C15.7949 21.6598 16.2759 21.4204 16.6355 20.9668C16.8348 20.7153 16.9802 20.4201 17.0819 20.1294C17.1998 20.4367 17.2835 20.8431 17.2835 21.3907C17.2835 23.8685 14.7707 25.889 12.5211 26.0798C11.7327 26.0451 10.9673 25.9195 10.2432 25.6954C8.616 24.9588 7.56615 23.3334 7.56615 21.5433ZM15.9623 25.6C17.2947 24.538 18.1835 22.9932 18.1835 21.3912C18.1835 19.6726 17.4522 18.9549 17.1399 18.6485C16.9973 18.5085 16.7754 18.4653 16.6022 18.5638C16.4271 18.6619 16.3362 18.8496 16.3821 19.0444C16.3979 19.2312 16.2705 20.043 15.8727 20.4759C15.6968 20.6676 15.4916 20.7607 15.2445 20.7607C14.9457 20.7607 14.817 20.6554 14.7459 20.5762C14.5218 20.3251 14.4503 19.8211 14.5335 19.0782L14.5416 19.0053C14.5592 18.8104 14.5893 18.5926 14.6213 18.3587C14.8607 16.6077 15.3062 13.3488 11.1059 12.3898C11.073 12.3822 11.0055 12.3786 10.9718 12.3786C10.8858 12.3786 10.799 12.3849 10.7193 12.3917C10.5389 12.4065 10.4012 12.5419 10.3454 12.7143C10.2923 12.8781 10.3526 13.0693 10.4768 13.1895C11.5883 14.7973 11.3097 15.7302 11.0636 16.5532C11.0226 16.691 10.9835 16.8223 10.9529 16.9466C10.7679 17.68 9.4809 19.0584 8.85585 19.0584C8.8464 19.0584 8.8374 19.0579 8.8284 19.0575C8.58045 19.0404 8.49675 18.5292 8.47245 18.3105C8.4504 18.1165 8.3064 17.959 8.11515 17.9199C7.9248 17.8812 7.7295 17.9689 7.63365 18.139C7.4136 18.5283 6.98655 19.6483 6.8619 20.0857C6.7323 20.5785 6.66615 21.069 6.66615 21.5437C6.66615 22.477 6.9051 23.3725 7.3353 24.1596C5.21985 22.4973 3.8541 19.9228 3.8541 17.0307C3.8541 16.2054 3.9648 15.3859 4.1826 14.5975C4.3104 14.1466 4.6659 13.1688 5.0016 12.348C5.39445 13.2921 6.03345 13.563 6.57165 13.599C8.67945 13.7587 11.5487 10.2451 11.9609 8.5968C12.0158 8.3781 12.0842 8.15085 12.1562 7.9128C12.6273 6.3486 13.2609 4.2462 11.2922 1.03725C17.4869 2.73555 16.8515 7.3764 16.383 10.7923C16.3191 11.2563 16.2606 11.6883 16.2242 12.0757L16.2116 12.1972C16.1378 12.8673 15.9132 14.9071 16.9419 16.056C17.4086 16.5762 18.0548 16.8403 18.8621 16.8403C19.7747 16.8403 20.5761 16.443 21.1778 15.691C21.7749 14.9454 22.0872 13.9923 22.2285 13.2349C22.6956 13.9095 23.1456 14.9675 23.1456 16.7427C23.1461 20.6037 19.9439 24.2937 15.9623 25.6Z" fill="#FFFDE4"/>
</g>
<defs>
<clipPath id="clip0_1985_202">
<rect width="27" height="27" fill="white"/>
</clipPath>
</defs>
</svg>
