<svg width="27" height="27" viewBox="0 0 27 27" fill="none" xmlns="http://www.w3.org/2000/svg">
<g clip-path="url(#clip0_1985_188)">
<path d="M9.74902 17.8177C7.23633 16.422 5.87412 13.9887 5.17388 12.1941C5.10832 12.0262 4.91904 11.9431 4.75094 12.0084C4.58283 12.0739 4.49967 12.2632 4.56523 12.4313C5.30475 14.3267 6.74884 16.8983 9.43194 18.3896C9.70387 18.5388 9.87504 18.8222 9.88065 19.1324C9.88626 19.4426 9.72555 19.7319 9.45923 19.8911C9.19291 20.05 8.8618 20.0543 8.5914 19.9026C2.90685 16.7445 2.0283 9.80588 1.99259 9.51201C1.93749 9.03728 2.27778 8.6077 2.75252 8.55234C3.22725 8.49724 3.65683 8.83729 3.71193 9.31227C3.7155 9.33829 3.74816 9.58242 3.82928 9.97119C3.86626 10.1477 4.03947 10.2607 4.216 10.2237C4.39253 10.1867 4.50553 10.0138 4.46854 9.83726C4.39202 9.47145 4.36268 9.25182 4.35987 9.23166C4.25375 8.40592 3.5025 7.81946 2.67548 7.91716C1.84846 8.01486 1.2546 8.7605 1.34413 9.58829C1.38036 9.89568 2.301 17.1547 8.27279 20.4725C9.00593 20.8796 9.9304 20.6156 10.3378 19.8824C10.7449 19.1493 10.4809 18.2251 9.74775 17.8177H9.74902Z" fill="#FFFDE4"/>
<path d="M4.29844 10.5533C4.12497 10.6018 4.02344 10.7819 4.07191 10.9556C4.09053 11.0219 4.11018 11.0895 4.13058 11.1584C4.1816 11.3316 4.36323 11.4306 4.53644 11.3796C4.7094 11.3285 4.80837 11.1469 4.75735 10.9737C4.73797 10.9079 4.71935 10.8431 4.70149 10.7796C4.67853 10.6959 4.62292 10.625 4.54716 10.5826C4.47139 10.54 4.38211 10.5296 4.29844 10.5533Z" fill="#FFFDE4"/>
<path d="M14.8927 11.9528C15.2356 11.9525 15.5685 11.8362 15.8371 11.6232C19.5862 8.64341 18.1763 3.48436 18.1148 3.26625C17.8809 2.46627 17.046 2.0043 16.2442 2.23108C15.4422 2.45786 14.9728 3.28845 15.1924 4.09251C15.2016 4.12669 16.11 7.52711 13.9478 9.2462C13.442 9.64798 13.2461 10.3258 13.4591 10.9357C13.6721 11.5454 14.2476 11.9538 14.8935 11.9533L14.8927 11.9528ZM14.032 10.336C14.0573 10.1077 14.1728 9.89899 14.3532 9.75665C16.8547 7.76843 15.8634 4.07389 15.8205 3.91624C15.6899 3.4563 15.9567 2.97774 16.4167 2.84713C16.8766 2.71652 17.3551 2.98361 17.4858 3.44329C17.5426 3.64456 18.8421 8.39903 15.4305 11.1112C15.0534 11.3979 14.5172 11.3367 14.2144 10.9722C14.071 10.7931 14.0055 10.564 14.032 10.3362V10.336Z" fill="#FFFDE4"/>
<path d="M8.82823 7.12965C9.73611 7.13271 10.6399 7.01282 11.5154 6.77329C12.3154 6.52839 12.7666 5.6825 12.5243 4.88175C12.2822 4.08101 11.4379 3.62694 10.6363 3.86647C10.6019 3.87668 7.22317 4.84986 5.46224 2.71395C5.05128 2.21549 4.36992 2.03131 3.76381 2.25529C3.15771 2.47901 2.75976 3.0619 2.77175 3.70806C2.77864 4.05065 2.90083 4.381 3.11842 4.64579C4.77986 6.66028 7.06041 7.12965 8.82823 7.12965ZM3.74035 3.01241C4.10896 2.70808 4.65435 2.76063 4.95843 3.1295C7.0071 5.61439 10.7871 4.50293 10.8246 4.49171C11.282 4.35294 11.7651 4.61161 11.9037 5.06899C12.0424 5.52663 11.7838 6.00978 11.3264 6.1483C11.1264 6.20876 6.39513 7.5924 3.623 4.23049C3.31893 3.86162 3.37148 3.31623 3.74035 3.01216V3.01241Z" fill="#FFFDE4"/>
<path d="M22.8778 20.5127C21.7534 20.4658 20.6562 20.1523 19.6764 19.5985C21.3881 17.7847 22.6712 15.61 23.4311 13.2349C23.9765 11.5357 24.2809 9.7681 24.3357 7.98448C24.3383 7.89774 24.3064 7.81382 24.2469 7.75081C24.1875 7.6878 24.1056 7.65081 24.0189 7.64852C23.8396 7.64571 23.6908 7.78627 23.6832 7.96534C23.6301 9.68775 23.3362 11.3941 22.8097 13.0351C21.733 16.3605 19.1338 20.8469 12.8692 23.3313C12.5807 23.4499 12.2508 23.4042 12.0054 23.2116C11.7603 23.019 11.6376 22.7096 11.6842 22.4012C11.7309 22.0928 11.9399 21.8336 12.2312 21.7224C14.1862 20.9734 15.9734 19.8449 17.49 18.4018C17.4925 18.399 17.4963 18.3982 17.4991 18.3957C17.502 18.3931 17.5022 18.3898 17.505 18.387C22.6028 13.4392 21.9307 6.61844 21.921 6.53196C21.8812 6.22177 22.0115 5.91438 22.2623 5.72765C22.5131 5.54066 22.8449 5.50342 23.1309 5.63045C23.4166 5.75724 23.6117 6.02815 23.6413 6.33937C23.6528 6.45671 23.7265 6.55875 23.8344 6.6062C23.9421 6.6539 24.0671 6.63987 24.1615 6.56946C24.2561 6.49906 24.3051 6.38324 24.2903 6.26641C24.1969 5.43301 23.4457 4.83277 22.6123 4.92614C21.7789 5.0195 21.1789 5.77076 21.2723 6.60415C21.2809 6.68502 21.8822 12.99 17.267 17.6942C16.6249 17.021 16.0665 16.2728 15.6038 15.4659C15.2064 14.7414 14.3028 14.4677 13.5702 14.8499C12.8378 15.232 12.5452 16.1294 12.9118 16.87C13.4605 17.8643 14.1281 18.7885 14.8995 19.6222C13.9821 20.2153 13.0074 20.7153 11.9906 21.1145C11.211 21.4237 10.8297 22.3063 11.1389 23.0859C11.448 23.8654 12.3307 24.2468 13.1102 23.9376C15.3765 23.0675 17.4471 21.7553 19.2019 20.0775C20.3108 20.7367 21.5664 21.1102 22.8554 21.1645C23.3273 21.1808 23.6987 21.5721 23.6906 22.0441C23.6827 22.5163 23.2977 22.8946 22.8255 22.8948H22.7942C21.2855 22.8387 19.8121 22.4239 18.4958 21.6851C18.3379 21.5979 18.1392 21.655 18.0517 21.813C17.9644 21.9706 18.0216 22.1693 18.1795 22.2568C19.5869 23.0461 21.1621 23.4884 22.7748 23.5473H22.8271C23.6569 23.5494 24.3344 22.8849 24.3487 22.055C24.363 21.2255 23.7087 20.538 22.8791 20.5115L22.8778 20.5127ZM13.4908 16.5695C13.2694 16.146 13.4332 15.6231 13.8569 15.4016C14.2806 15.18 14.8036 15.344 15.025 15.7677C15.5176 16.6297 16.113 17.4289 16.7976 18.1477C16.3704 18.5429 15.9186 18.911 15.4454 19.25C14.6875 18.4391 14.0311 17.5391 13.4908 16.5695Z" fill="#FFFDE4"/>
<path d="M8.97468 9.43649C7.94409 9.43649 7.1084 10.2719 7.1084 11.3025C7.1084 12.3334 7.94409 13.1688 8.97468 13.1688C10.0053 13.1688 10.8407 12.3334 10.8407 11.3025C10.8397 10.2724 10.0048 9.43777 8.97468 9.43649ZM8.97468 12.5158C8.30454 12.5158 7.76144 11.9727 7.76144 11.3025C7.76144 10.6326 8.30454 10.0895 8.97468 10.0895C9.64456 10.0895 10.1877 10.6326 10.1877 11.3025C10.1869 11.9721 9.6443 12.515 8.97468 12.5158Z" fill="#FFFDE4"/>
<path d="M24.4699 16.7868C23.7957 16.7868 23.2493 17.3332 23.2493 18.0072C23.2493 18.6814 23.7957 19.2278 24.4699 19.2278C25.1439 19.2278 25.6903 18.6814 25.6903 18.0072C25.6893 17.3337 25.1434 16.7878 24.4699 16.7868ZM24.4699 18.575C24.1564 18.575 23.9023 18.3209 23.9023 18.0074C23.9023 17.6942 24.1564 17.4401 24.4699 17.4401C24.7832 17.4401 25.0372 17.6942 25.0372 18.0074C25.0365 18.3207 24.7829 18.5743 24.4699 18.5748V18.575Z" fill="#FFFDE4"/>
<path d="M5.95734 21.4058C5.11196 21.4058 4.42651 22.091 4.42651 22.9364C4.42651 23.7818 5.11196 24.4672 5.95734 24.4672C6.80273 24.4672 7.48792 23.7818 7.48792 22.9364C7.48689 22.0915 6.80222 21.4068 5.95734 21.4058ZM5.95734 23.8144C5.47241 23.8144 5.07956 23.4216 5.07956 22.9367C5.07956 22.452 5.47241 22.0591 5.95734 22.0591C6.44202 22.0591 6.83487 22.452 6.83487 22.9367C6.83411 23.4211 6.44177 23.8137 5.95734 23.8142V23.8144Z" fill="#FFFDE4"/>
<path d="M11.9792 2.49101C12.667 2.4905 13.2246 1.93337 13.2251 1.24538C13.2251 1.06528 13.079 0.918854 12.8986 0.918854C12.7183 0.918854 12.5721 1.06528 12.5721 1.24538C12.5721 1.57241 12.3068 1.83745 11.98 1.83745C11.653 1.83745 11.3879 1.57241 11.3879 1.24538C11.3877 0.918344 11.6527 0.6533 11.9798 0.653045C12.1601 0.653045 12.3063 0.506875 12.3063 0.326522C12.3063 0.14617 12.1601 0 11.9798 0C11.292 0 10.7344 0.557639 10.7344 1.24538C10.7344 1.93311 11.292 2.49075 11.9798 2.49075L11.9792 2.49101Z" fill="#FFFDE4"/>
<path d="M16.7936 24.5591C16.1197 24.5591 15.5732 25.1055 15.5732 25.7797C15.5732 26.4537 16.1197 27.0001 16.7936 27.0001C17.4676 27.0001 18.014 26.4537 18.014 25.7797C18.0132 25.106 17.4673 24.5601 16.7936 24.5591ZM16.7936 26.3473C16.4804 26.3473 16.2263 26.0932 16.2263 25.78C16.2263 25.4665 16.4804 25.2124 16.7936 25.2124C17.1071 25.2124 17.361 25.4665 17.361 25.78C17.3607 26.093 17.1069 26.3468 16.7936 26.3473Z" fill="#FFFDE4"/>
</g>
<defs>
<clipPath id="clip0_1985_188">
<rect width="27" height="27" fill="white"/>
</clipPath>
</defs>
</svg>
