<svg width="28" height="28" viewBox="0 0 28 28" fill="none" xmlns="http://www.w3.org/2000/svg">
<path d="M12.8333 25.3514C13.188 25.5562 13.5904 25.664 14 25.664C14.4096 25.664 14.812 25.5562 15.1667 25.3514L23.3333 20.6847C23.6877 20.4801 23.982 20.186 24.1868 19.8317C24.3916 19.4774 24.4996 19.0756 24.5 18.6664V9.33306C24.4996 8.92388 24.3916 8.522 24.1868 8.16775C23.982 7.81349 23.6877 7.51931 23.3333 7.31472L15.1667 2.64806C14.812 2.44326 14.4096 2.33545 14 2.33545C13.5904 2.33545 13.188 2.44326 12.8333 2.64806L4.66667 7.31472C4.31231 7.51931 4.01798 7.81349 3.81321 8.16775C3.60843 8.522 3.50042 8.92388 3.5 9.33306V18.6664C3.50042 19.0756 3.60843 19.4774 3.81321 19.8317C4.01798 20.186 4.31231 20.4801 4.66667 20.6847L12.8333 25.3514Z" stroke="#43581C" stroke-width="1.75" stroke-linecap="round" stroke-linejoin="round"/>
<path d="M14 25.6667V14" stroke="#43581C" stroke-width="1.75" stroke-linecap="round" stroke-linejoin="round"/>
<path d="M3.83789 8.1665L13.9996 13.9998L24.1612 8.1665" stroke="#43581C" stroke-width="1.75" stroke-linecap="round" stroke-linejoin="round"/>
<path d="M8.75 4.98145L19.25 10.9898" stroke="#43581C" stroke-width="1.75" stroke-linecap="round" stroke-linejoin="round"/>
</svg>
