<svg width="32" height="32" viewBox="0 0 32 32" fill="none" xmlns="http://www.w3.org/2000/svg">
<path d="M14.6663 26.6665C12.3251 26.6736 10.0667 25.8005 8.339 24.2204C6.61136 22.6403 5.54067 20.4686 5.33929 18.136C5.13792 15.8034 5.82057 13.4803 7.25185 11.6275C8.68312 9.77467 10.7585 8.52744 13.0663 8.13317C20.6663 6.6665 22.6663 5.97317 25.333 2.6665C26.6663 5.33317 27.9996 8.23984 27.9996 13.3332C27.9996 20.6665 21.6263 26.6665 14.6663 26.6665Z" stroke="#7A8E6F" stroke-width="2.66667" stroke-linecap="round" stroke-linejoin="round"/>
<path d="M2.66602 28C2.66602 24 5.13268 20.8533 9.43935 20C12.666 19.36 15.9993 17.3333 17.3327 16" stroke="#7A8E6F" stroke-width="2.66667" stroke-linecap="round" stroke-linejoin="round"/>
</svg>
