<svg width="32" height="32" viewBox="0 0 32 32" fill="none" xmlns="http://www.w3.org/2000/svg">
<path d="M26.6673 13.3332C26.6673 19.9905 19.282 26.9238 16.802 29.0652C16.571 29.2389 16.2897 29.3328 16.0007 29.3328C15.7116 29.3328 15.4304 29.2389 15.1993 29.0652C12.7193 26.9238 5.33398 19.9905 5.33398 13.3332C5.33398 10.5042 6.45779 7.79109 8.45818 5.7907C10.4586 3.79031 13.1717 2.6665 16.0007 2.6665C18.8296 2.6665 21.5427 3.79031 23.5431 5.7907C25.5435 7.79109 26.6673 10.5042 26.6673 13.3332Z" stroke="#7A8E6F" stroke-width="2.66667" stroke-linecap="round" stroke-linejoin="round"/>
<path d="M16 17.3333C18.2091 17.3333 20 15.5424 20 13.3333C20 11.1241 18.2091 9.33325 16 9.33325C13.7909 9.33325 12 11.1241 12 13.3333C12 15.5424 13.7909 17.3333 16 17.3333Z" stroke="#7A8E6F" stroke-width="2.66667" stroke-linecap="round" stroke-linejoin="round"/>
</svg>
