<svg width="48" height="48" viewBox="0 0 48 48" fill="none" xmlns="http://www.w3.org/2000/svg">
<path d="M13.9995 38H9.62954C8.99867 38.0018 8.37805 37.8405 7.82788 37.5318C7.27771 37.2231 6.81669 36.7774 6.48953 36.238C6.17536 35.6962 6.00923 35.0813 6.00782 34.4551C6.00642 33.8288 6.16979 33.2132 6.48153 32.67L14.3915 19" stroke="#5A6E4F" stroke-width="3" stroke-linecap="round" stroke-linejoin="round"/>
<path d="M22 38.0002H38.406C39.0338 37.9953 39.6499 37.829 40.1949 37.5173C40.7399 37.2056 41.1955 36.7589 41.518 36.2202C41.8278 35.6799 41.9908 35.068 41.9908 34.4452C41.9908 33.8224 41.8278 33.2104 41.518 32.6702L39.066 28.4302" stroke="#5A6E4F" stroke-width="3" stroke-linecap="round" stroke-linejoin="round"/>
<path d="M28 32L22 38L28 44" stroke="#5A6E4F" stroke-width="3" stroke-linecap="round" stroke-linejoin="round"/>
<path d="M16.5852 27.192L14.3912 19L6.19922 21.196" stroke="#5A6E4F" stroke-width="3" stroke-linecap="round" stroke-linejoin="round"/>
<path d="M18.6875 11.622L20.8735 7.83801C21.1874 7.2908 21.6374 6.83402 22.1799 6.51198C22.7223 6.18994 23.3388 6.01358 23.9695 6.00001C24.5954 5.99884 25.2105 6.16233 25.7533 6.47406C26.296 6.78579 26.7472 7.23479 27.0615 7.77601L34.9475 21.462" stroke="#5A6E4F" stroke-width="3" stroke-linecap="round" stroke-linejoin="round"/>
<path d="M26.7559 19.266L34.9479 21.462L37.1419 13.27" stroke="#5A6E4F" stroke-width="3" stroke-linecap="round" stroke-linejoin="round"/>
</svg>
