<svg width="32" height="32" viewBox="0 0 32 32" fill="none" xmlns="http://www.w3.org/2000/svg">
<path d="M9.33367 25.3332H6.42034C5.99976 25.3344 5.58601 25.2269 5.21924 25.0211C4.85246 24.8152 4.54511 24.5181 4.32701 24.1585C4.11755 23.7973 4.0068 23.3874 4.00587 22.9699C4.00493 22.5524 4.11384 22.142 4.32167 21.7798L9.59501 12.6665" stroke="#7A8E6F" stroke-width="2.66667" stroke-linecap="round" stroke-linejoin="round"/>
<path d="M14.666 25.3331H25.6033C26.0219 25.3299 26.4326 25.219 26.7959 25.0112C27.1593 24.8034 27.463 24.5056 27.678 24.1465C27.8846 23.7863 27.9932 23.3783 27.9932 22.9631C27.9932 22.5479 27.8846 22.14 27.678 21.7798L26.0434 18.9531" stroke="#7A8E6F" stroke-width="2.66667" stroke-linecap="round" stroke-linejoin="round"/>
<path d="M18.666 21.3335L14.666 25.3335L18.666 29.3335" stroke="#7A8E6F" stroke-width="2.66667" stroke-linecap="round" stroke-linejoin="round"/>
<path d="M11.0568 18.1278L9.59415 12.6665L4.13281 14.1305" stroke="#7A8E6F" stroke-width="2.66667" stroke-linecap="round" stroke-linejoin="round"/>
<path d="M12.459 7.748L13.9163 5.22534C14.1256 4.86053 14.4256 4.55601 14.7872 4.34132C15.1489 4.12663 15.5599 4.00905 15.9803 4C16.3976 3.99923 16.8077 4.10822 17.1695 4.31604C17.5313 4.52386 17.8321 4.8232 18.0417 5.184L23.299 14.308" stroke="#7A8E6F" stroke-width="2.66667" stroke-linecap="round" stroke-linejoin="round"/>
<path d="M17.8379 12.8435L23.2992 14.3075L24.7619 8.84619" stroke="#7A8E6F" stroke-width="2.66667" stroke-linecap="round" stroke-linejoin="round"/>
</svg>
